<svg id="Capa_1" enable-background="new 0 0 512 512" height="512" viewBox="0 0 512 512" width="512" xmlns="http://www.w3.org/2000/svg"><g><g><path d="m433.873 83.397c-56.315-23.819-116.161-35.897-177.873-35.897s-121.558 12.078-177.873 35.897c-3.37 1.426-6.719 2.89-10.046 4.391l150.591 391.085c13.157 34.169 61.5 34.169 74.656 0l150.591-391.085c-3.327-1.501-6.676-2.965-10.046-4.391z" fill="#f9ed80"/></g><g><path d="m126.376 66.114c-16.337 4.83-32.432 10.593-48.249 17.283-3.37 1.426-6.719 2.89-10.046 4.391l150.591 391.085c12.89 33.475 59.528 34.132 73.789 2.017z" fill="#f9d888"/></g><g><path d="m7.5 97.699c0 29.869 31.597 49.202 58.161 35.545 58.176-29.908 123.04-45.744 190.339-45.744s132.163 15.836 190.339 45.745c26.564 13.656 58.161-5.676 58.161-35.545 0-14.947-8.329-28.671-21.622-35.504-68.016-34.961-145.141-54.696-226.878-54.696s-158.862 19.735-226.878 54.695c-13.293 6.833-21.622 20.558-21.622 35.504z" fill="#ffca8a"/></g><g><circle cx="215.894" cy="192.585" fill="#ff6f7f" r="50"/></g><g><path d="m195.894 192.585c0-22.388 14.715-41.336 35-47.708-4.736-1.487-9.773-2.292-15-2.292-27.614 0-50 22.386-50 50s22.386 50 50 50c5.227 0 10.264-.805 15-2.292-20.285-6.372-35-25.32-35-47.708z" fill="#fc5c70"/></g><g><path d="m98.609 73.552c-5.286-19.729 4.954-39.952 23.226-47.719-32.356 9.051-63.383 21.287-92.713 36.362-13.293 6.833-21.622 20.558-21.622 35.504 0 29.869 31.597 49.202 58.161 35.545 24.162-12.422 49.48-22.407 75.644-29.847-19.244 1.733-37.524-10.544-42.696-29.845z" fill="#ffbe73"/></g><g><circle cx="284.04" cy="349.638" fill="#f9d888" r="10"/></g><g><circle cx="134.369" cy="157.909" fill="#fccb88" r="10"/></g><g><circle cx="292.461" cy="128.39" fill="#f9d888" r="20"/></g><g><circle cx="332.338" cy="273.681" fill="#ff6f7f" r="50"/></g><g><path d="m312.338 273.681c0-22.388 14.715-41.336 35-47.708-4.736-1.487-9.773-2.292-15-2.292-27.614 0-50 22.386-50 50s22.386 50 50 50c5.227 0 10.264-.805 15-2.292-20.285-6.372-35-25.32-35-47.708z" fill="#de5c6e"/></g><g><circle cx="223.394" cy="403.434" fill="#ff6f7f" r="50"/></g><g><path d="m203.394 403.434c0-22.388 14.715-41.336 35-47.708-4.736-1.487-9.773-2.292-15-2.292-27.614 0-50 22.386-50 50s22.386 50 50 50c5.227 0 10.264-.805 15-2.292-20.285-6.373-35-25.321-35-47.708z" fill="#fc5c70"/></g><g><path d="m193.552 30.632c-4.143 0-7.5 3.358-7.5 7.5v12c0 4.142 3.357 7.5 7.5 7.5s7.5-3.358 7.5-7.5v-12c0-4.142-3.358-7.5-7.5-7.5z"/><path d="m318.448 30.632c-4.143 0-7.5 3.358-7.5 7.5v12c0 4.142 3.357 7.5 7.5 7.5s7.5-3.358 7.5-7.5v-12c0-4.142-3.357-7.5-7.5-7.5z"/><path d="m277.391 44.12c-3.123-2.721-7.86-2.396-10.581.727-2.729 3.132-6.669 4.928-10.81 4.928s-8.081-1.796-10.81-4.928c-2.721-3.123-7.459-3.448-10.581-.727-3.123 2.721-3.449 7.458-.728 10.582 5.578 6.402 13.64 10.073 22.118 10.073s16.54-3.671 22.118-10.073c2.723-3.123 2.397-7.861-.726-10.582z"/><path d="m366.587 168.133c-6.143-4.896-14.107-6.945-21.847-5.628-7.743 1.318-14.578 5.889-18.754 12.541-1.937 3.083-4.979 5.118-8.567 5.729-3.592.611-7.135-.301-9.981-2.57-3.238-2.582-7.959-2.048-10.539 1.191-2.582 3.239-2.048 7.958 1.191 10.539 4.922 3.922 11.012 6.019 17.221 6.018 1.54 0 3.088-.129 4.626-.391 7.742-1.318 14.577-5.889 18.753-12.541 1.937-3.083 4.979-5.118 8.568-5.729 3.589-.608 7.133.302 9.979 2.571 3.241 2.582 7.958 2.049 10.54-1.191 2.581-3.239 2.049-7.957-1.19-10.539z"/><path d="m235.859 292.317c-6.9-3.75-15.099-4.383-22.493-1.736-3.43 1.228-7.077.945-10.275-.793-3.199-1.738-5.421-4.647-6.257-8.191-.95-4.032-4.997-6.529-9.021-5.579-4.031.95-6.529 4.989-5.579 9.021 1.802 7.645 6.793 14.18 13.693 17.93s15.1 4.382 22.493 1.736c3.428-1.228 7.077-.946 10.276.793 3.199 1.738 5.421 4.647 6.256 8.19.814 3.453 3.894 5.781 7.293 5.781.57 0 1.149-.065 1.728-.202 4.032-.95 6.529-4.989 5.579-9.021-1.801-7.644-6.792-14.179-13.693-17.929z"/><path d="m486.307 55.525c-71.681-36.844-149.167-55.525-230.307-55.525s-158.626 18.681-230.307 55.525c-15.848 8.146-25.693 24.306-25.693 42.174 0 16.678 8.501 31.823 22.739 40.513 14.218 8.677 31.547 9.313 46.351 1.702 3.07-1.578 6.157-3.106 9.254-4.602l93.47 242.743c-3.784 7.659-5.92 16.272-5.92 25.378 0 24.205 15.041 44.949 36.261 53.417l9.518 24.718c7.227 18.771 24.213 30.432 44.327 30.432s37.1-11.661 44.327-30.432l60.923-158.216c17.08-9.981 28.587-28.502 28.587-49.671 0-6.096-.962-11.97-2.728-17.488l46.543-120.872c3.105 1.497 6.197 3.02 9.257 4.593 6.872 3.533 14.285 5.288 21.682 5.288 8.537 0 17.051-2.341 24.669-6.991 14.239-8.689 22.74-23.834 22.74-40.512 0-17.868-9.845-34.028-25.693-42.174zm-305.413 347.909c0-23.435 19.065-42.5 42.5-42.5s42.5 19.065 42.5 42.5-19.065 42.5-42.5 42.5-42.5-19.066-42.5-42.5zm300.552-278.025c-9.719 5.931-21.561 6.367-31.678 1.166-21.275-10.938-43.64-20.106-66.475-27.251-3.95-1.237-8.161.964-9.397 4.918-1.236 3.953.966 8.161 4.918 9.397 13.962 4.369 27.739 9.527 41.183 15.403l-42.174 109.526c-10.526-13.603-26.995-22.386-45.486-22.386-31.706 0-57.5 25.794-57.5 57.5 0 9.251 2.252 18.45 6.511 26.601 1.919 3.672 6.452 5.091 10.121 3.173 3.671-1.918 5.092-6.45 3.174-10.121-3.188-6.102-4.806-12.714-4.806-19.653 0-23.435 19.065-42.5 42.5-42.5s42.5 19.065 42.5 42.5-19.065 42.5-42.5 42.5c-6.938 0-13.55-1.616-19.65-4.804-3.67-1.917-8.202-.498-10.121 3.173-1.918 3.671-.497 8.202 3.174 10.121 8.149 4.259 17.347 6.51 26.598 6.51 3.475 0 6.872-.327 10.179-.92l-56.188 145.918c-5.911 15.35-19.543 20.82-30.329 20.82s-24.418-5.47-30.329-20.822l-5.919-15.372c1.206.076 2.418.127 3.642.127 31.706 0 57.5-25.794 57.5-57.5s-25.794-57.5-57.5-57.5c-16.128 0-30.717 6.684-41.169 17.416l-90.23-234.327c51.507-22.585 106.557-34.022 164.005-34.022 31.925 0 63.685 3.657 94.397 10.868 4.03.948 8.069-1.553 9.017-5.587.946-4.032-1.555-8.069-5.587-9.016-31.836-7.475-64.749-11.265-97.827-11.265-67.497 0-134.501 16.105-193.768 46.574-10.118 5.201-21.961 4.766-31.679-1.166-9.739-5.943-15.553-16.302-15.553-27.709 0-12.221 6.725-23.269 17.551-28.833 69.538-35.743 144.718-53.866 223.449-53.866s153.911 18.123 223.449 53.866c10.826 5.564 17.551 16.613 17.551 28.833 0 11.407-5.814 21.766-15.554 27.71z"/><path d="m215.894 135.085c-31.706 0-57.5 25.794-57.5 57.5s25.794 57.5 57.5 57.5 57.5-25.794 57.5-57.5-25.794-57.5-57.5-57.5zm0 100c-23.435 0-42.5-19.065-42.5-42.5s19.065-42.5 42.5-42.5 42.5 19.065 42.5 42.5-19.066 42.5-42.5 42.5z"/></g></g></svg>